<mxfile host="app.diagrams.net" modified="2023-10-13T23:56:55.081Z" agent="Mozilla/5.0 (Windows NT 10.0; Win64; x64) AppleWebKit/537.36 (KHTML, like Gecko) Chrome/118.0.0.0 Safari/537.36" version="22.0.4" etag="bJUj8VGQeFbHOCrlQz14" type="github">
  <diagram name="Page-1" id="Q2zw-hGwNQeBeJfO8rO9">
    <mxGraphModel>
      <root>
        <mxCell id="0" />
        <mxCell id="1" parent="0" />
      </root>
    </mxGraphModel>
  </diagram>
</mxfile>
